<svg id="Layer_1" xmlns="http://www.w3.org/2000/svg" viewBox="0 0 333.3 537.1"><style>.st0{fill:#8cc63f}</style><path class="st0" d="M282.8 453C311 413.5 317 369 317 274h-76.5c0 96-5 94-5 94S144 213.8 113 158.3s-3-88.6 23-88.6 30.3 24.4 30.3 36.9 2.3 65.4 2.3 65.4h71.3v-70.4C239.9 76.1 229.2 0 133.7 0S-5.9 93.5 44 185.6c16 29.5 20 39.5 20 39.5-36.8 26.5-64 50.4-64 112v82.5s4.1 117 126.1 117c75.5 0 104.5-27.8 104.5-27.8l16.7 28.3h86L282.8 453zm-142.3 19.1c-18.5 0-63-10-63-62 0-102 4-108.6 20.5-120.5l96 162.5c-24.5 17.5-35 20-53.5 20z"/></svg>