<?xml version="1.0" encoding="utf-8"?>
<!-- Generator: Adobe Illustrator 25.0.1, SVG Export Plug-In . SVG Version: 6.00 Build 0)  -->
<svg version="1.1" id="Layer_1" xmlns="http://www.w3.org/2000/svg" xmlns:xlink="http://www.w3.org/1999/xlink" x="0px" y="0px"
	 viewBox="0 0 301.5 112.6" style="enable-background:new 0 0 301.5 112.6;" xml:space="preserve">
<style type="text/css">
	.st0{fill:#FFFFFF;}
	.st1{fill:#8DC63F;}
</style>
<g>
	<g>
		<path class="st0" d="M4,101.6H5l4,9H8l-1-2.3H2.1L1,110.6H0L4,101.6z M6.5,107.3l-2-4.5l-2,4.5H6.5z"/>
		<path class="st0" d="M14.6,105.2V98h2.8v7.1c0,2,1,3.1,2.7,3.1c1.7,0,2.7-1,2.7-3V98h2.8v7.1c0,3.8-2.1,5.7-5.5,5.7
			S14.6,108.9,14.6,105.2z"/>
		<path class="st0" d="M28.4,98h2.5l5.9,7.7V98h2.7v12.6h-2.3l-6.1-8v8h-2.7V98z"/>
		<path class="st0" d="M42.7,98h2.8v12.6h-2.8V98z"/>
		<path class="st0" d="M47.7,108.7l1.6-2c1.1,0.9,2.3,1.5,3.7,1.5c1.1,0,1.8-0.4,1.8-1.2v0c0-0.7-0.4-1.1-2.5-1.6
			c-2.5-0.6-4.2-1.3-4.2-3.8v0c0-2.3,1.8-3.8,4.4-3.8c1.8,0,3.4,0.6,4.7,1.6l-1.4,2.1c-1.1-0.8-2.2-1.2-3.3-1.2
			c-1.1,0-1.6,0.5-1.6,1.1v0c0,0.8,0.5,1.1,2.7,1.6c2.5,0.7,4,1.6,4,3.8v0c0,2.5-1.9,3.9-4.6,3.9C51.1,110.7,49.2,110.1,47.7,108.7z
			"/>
		<path class="st0" d="M59.5,104.3L59.5,104.3c0-3.6,2.8-6.5,6.7-6.5s6.7,2.9,6.7,6.5v0c0,3.6-2.8,6.5-6.7,6.5
			C62.3,110.8,59.5,107.9,59.5,104.3z M69.9,104.3L69.9,104.3c0-2.2-1.6-4-3.8-4s-3.8,1.8-3.8,3.9v0c0,2.2,1.6,3.9,3.8,3.9
			S69.9,106.5,69.9,104.3z"/>
		<path class="st0" d="M75.3,98h2.5l5.9,7.7V98h2.7v12.6h-2.3l-6.1-8v8h-2.7V98z"/>
		<path class="st0" d="M95.2,98h5.3c1.5,0,2.8,0.5,3.5,1.2c0.6,0.6,1,1.4,1,2.3v0c0,2.1-1.6,3.3-3.7,3.6l4.1,5.4h-1.2l-4-5.2h-4.1
			v5.2h-0.9V98z M100.3,104.5c2.1,0,3.7-1.1,3.7-2.9v0c0-1.7-1.3-2.7-3.6-2.7h-4.3v5.6H100.3z"/>
		<path class="st0" d="M108.3,98h0.9v12.6h-0.9V98z"/>
		<path class="st0" d="M112.2,108.7l0.6-0.7c1.4,1.3,2.7,1.9,4.5,1.9c1.9,0,3.2-1.1,3.2-2.5v0c0-1.3-0.7-2.1-3.5-2.7
			c-3-0.6-4.2-1.6-4.2-3.5v0c0-1.9,1.7-3.3,4-3.3c1.8,0,3,0.5,4.3,1.5l-0.6,0.7c-1.2-1-2.4-1.4-3.7-1.4c-1.8,0-3.1,1.1-3.1,2.4v0
			c0,1.3,0.7,2.1,3.7,2.7c2.9,0.6,4.1,1.6,4.1,3.5v0c0,2-1.7,3.4-4.2,3.4C115.3,110.7,113.7,110.1,112.2,108.7z"/>
		<path class="st0" d="M124.5,98h0.9v8.2l8-8.2h1.3l-5.5,5.5l5.7,7h-1.2l-5.2-6.3l-3.1,3.2v3.2h-0.9V98z"/>
		<path class="st0" d="M147.5,97.9h0.9l5.8,12.6h-1l-1.6-3.5h-7.4l-1.6,3.5h-1L147.5,97.9z M151.2,106.2l-3.3-7.3l-3.3,7.3H151.2z"
			/>
		<path class="st0" d="M156.9,98h4.2c3.9,0,6.7,2.7,6.7,6.2v0c0,3.5-2.7,6.3-6.7,6.3h-4.2V98z M157.8,98.9v10.8h3.2
			c3.5,0,5.7-2.4,5.7-5.4v0c0-3-2.2-5.4-5.7-5.4H157.8z"/>
		<path class="st0" d="M169,98h1l4.9,11.5l4.9-11.5h1l-5.5,12.6h-0.8L169,98z"/>
		<path class="st0" d="M183.6,98h0.9v12.6h-0.9V98z"/>
		<path class="st0" d="M187.6,108.7l0.6-0.7c1.4,1.3,2.7,1.9,4.5,1.9c1.9,0,3.2-1.1,3.2-2.5v0c0-1.3-0.7-2.1-3.5-2.7
			c-3-0.6-4.2-1.6-4.2-3.5v0c0-1.9,1.7-3.3,4-3.3c1.8,0,3,0.5,4.3,1.5l-0.6,0.7c-1.2-1-2.4-1.4-3.7-1.4c-1.8,0-3.1,1.1-3.1,2.4v0
			c0,1.3,0.7,2.1,3.7,2.7c2.9,0.6,4.1,1.6,4.1,3.5v0c0,2-1.7,3.4-4.2,3.4C190.7,110.7,189.1,110.1,187.6,108.7z"/>
		<path class="st0" d="M199.3,104.3L199.3,104.3c0-3.5,2.5-6.5,6.3-6.5s6.3,3,6.3,6.5v0c0,3.4-2.5,6.5-6.3,6.5
			C201.8,110.8,199.3,107.7,199.3,104.3z M211,104.3L211,104.3c0-3.1-2.3-5.7-5.4-5.7c-3.1,0-5.3,2.5-5.3,5.6v0
			c0,3.1,2.3,5.6,5.4,5.6S211,107.4,211,104.3z"/>
		<path class="st0" d="M215.1,98h5.3c1.5,0,2.8,0.5,3.5,1.2c0.6,0.6,1,1.4,1,2.3v0c0,2.1-1.6,3.3-3.7,3.6l4.1,5.4h-1.2l-4-5.2h-4.1
			v5.2h-0.9V98z M220.3,104.5c2.1,0,3.7-1.1,3.7-2.9v0c0-1.7-1.3-2.7-3.6-2.7h-4.3v5.6H220.3z"/>
		<path class="st0" d="M227.3,108.7l0.6-0.7c1.4,1.3,2.7,1.9,4.5,1.9c1.9,0,3.2-1.1,3.2-2.5v0c0-1.3-0.7-2.1-3.5-2.7
			c-3-0.6-4.2-1.6-4.2-3.5v0c0-1.9,1.7-3.3,4-3.3c1.8,0,3,0.5,4.3,1.5l-0.6,0.7c-1.2-1-2.4-1.4-3.7-1.4c-1.8,0-3.1,1.1-3.1,2.4v0
			c0,1.3,0.7,2.1,3.7,2.7c2.9,0.6,4.1,1.6,4.1,3.5v0c0,2-1.7,3.4-4.2,3.4C230.3,110.7,228.8,110.1,227.3,108.7z"/>
		<path class="st0" d="M242.4,106.1L242.4,106.1c0-2.5,1.9-4.6,4.5-4.6c1.6,0,2.6,0.6,3.5,1.4l-0.7,0.7c-0.7-0.7-1.6-1.2-2.8-1.2
			c-2,0-3.4,1.6-3.4,3.6v0c0,2.1,1.5,3.7,3.4,3.7c1.2,0,2-0.5,2.9-1.3l0.7,0.6c-0.9,0.9-1.9,1.6-3.6,1.6
			C244.2,110.7,242.4,108.7,242.4,106.1z"/>
		<path class="st0" d="M251.5,107.3L251.5,107.3c0-1.9,1.4-3.5,3.4-3.5c2,0,3.4,1.5,3.4,3.4v0c0,1.9-1.5,3.4-3.4,3.4
			C252.9,110.7,251.5,109.2,251.5,107.3z M257.3,107.3L257.3,107.3c0-1.4-1.1-2.6-2.4-2.6c-1.4,0-2.4,1.2-2.4,2.5v0
			c0,1.4,1,2.6,2.4,2.6C256.3,109.8,257.3,108.7,257.3,107.3z"/>
		<path class="st0" d="M260.1,104h1v1.1c0.4-0.6,1-1.2,2.1-1.2c1.1,0,1.8,0.6,2.1,1.3c0.5-0.7,1.2-1.3,2.3-1.3c1.5,0,2.4,1,2.4,2.6
			v4.1h-1v-3.8c0-1.3-0.6-2-1.7-2c-1,0-1.8,0.7-1.8,2v3.8h-1v-3.9c0-1.2-0.6-2-1.7-2s-1.8,0.9-1.8,2.1v3.7h-1V104z"/>
		<path class="st0" d="M272.1,104h1v1.3c0.5-0.8,1.3-1.5,2.5-1.5c1.6,0,3.1,1.2,3.1,3.4v0c0,2.1-1.5,3.4-3.1,3.4
			c-1.2,0-2-0.7-2.5-1.4v3.3h-1V104z M277.7,107.3L277.7,107.3c0-1.6-1.1-2.6-2.3-2.6c-1.2,0-2.4,1-2.4,2.5v0c0,1.5,1.2,2.5,2.4,2.5
			C276.7,109.8,277.7,108.9,277.7,107.3z"/>
		<path class="st0" d="M280,108.6L280,108.6c0-1.4,1.1-2.1,2.8-2.1c0.8,0,1.4,0.1,2,0.3v-0.2c0-1.2-0.7-1.8-2-1.8
			c-0.8,0-1.4,0.2-2,0.5l-0.3-0.8c0.7-0.3,1.4-0.5,2.4-0.5c0.9,0,1.6,0.2,2.1,0.7c0.4,0.4,0.7,1.1,0.7,1.9v4h-0.9v-1
			c-0.5,0.6-1.2,1.1-2.4,1.1C281.3,110.7,280,110,280,108.6z M284.9,108.1v-0.6c-0.5-0.1-1.1-0.3-1.9-0.3c-1.2,0-1.9,0.5-1.9,1.4v0
			c0,0.8,0.8,1.3,1.7,1.3C283.9,109.9,284.9,109.2,284.9,108.1z"/>
		<path class="st0" d="M287.9,104h1v1.1c0.4-0.7,1.1-1.3,2.2-1.3c1.6,0,2.5,1.1,2.5,2.6v4.1h-1v-3.8c0-1.2-0.7-2-1.8-2
			c-1.1,0-2,0.8-2,2.1v3.8h-1V104z"/>
		<path class="st0" d="M300.4,104h1l-2.8,6.8c-0.6,1.4-1.2,1.9-2.2,1.9c-0.5,0-1-0.1-1.4-0.3l0.3-0.8c0.3,0.2,0.6,0.2,1,0.2
			c0.6,0,1-0.3,1.3-1.2l-3-6.5h1.1l2.4,5.5L300.4,104z"/>
	</g>
	<g>
		<path class="st0" d="M50.6,1.2h21.3c10.4,0,10.4,7,10.4,12.3v6.2c0,7.4-2.3,8.7-7.5,9.8c2.5,0.7,7.9,2.2,7.9,10v11.8
			c0,3,0.2,6,2.5,7.8H73.5c-1.2-2.2-1.6-4.7-1.6-6.4V40.4c0-3.9,0-6.7-5.6-6.7h-5.1v25.5H50.6V1.2z M61.3,25.4h5.6
			c4.8,0,4.9-2.6,4.9-5.6v-5.5c0-4.8-2.5-4.8-4.9-4.8h-5.6V25.4z"/>
		<path class="st0" d="M109.7,22.4V15c0-4.3-0.7-6.8-5.4-6.8c-4.7,0-4.9,3.7-4.9,6.3v31c0,3.4,0.6,6.6,5.3,6.6c5,0,5-3.6,5-7.1v-7.5
			h10.6v8.2c0,4.7,0,14.8-15.8,14.8c-3,0-7.9-0.6-11.2-2.8c-4.6-3-4.6-7.5-4.6-10.7V15.3c0-4.7,0.2-7.9,2.9-10.7
			c4.2-4.5,10.8-4.6,13-4.6c15.8,0,15.8,9.4,15.8,13.5v8.9H109.7z"/>
		<path class="st0" d="M126.7,1.2H144l6.9,40.5l6.8-40.5h17.1v57.9h-10.6l1-50.2l-9.4,50.2h-10l-9.5-50.2l0.8,50.2h-10.5V1.2z"/>
		<path class="st1" d="M211.1,50.2c2.4-3.8,3.8-9.3,3.8-14.5v-5.5h-8.5v5.4c0,2-0.2,4.1-0.6,5.6L193.5,20c-1.8-3.1-2.6-5.3-2.6-7.3
			c0-1.5,0.4-5,3.7-5c0.9,0,3.6,0,3.6,5.1V19h8.4v-6.5c0-8-4.3-12.5-12-12.5c-7.8,0-12.5,4.6-12.5,12.2c0,4.6,1.8,8.1,4.5,12.7
			c-4.8,3.5-7,6.3-7,13.4V44c0,10.5,5.1,15.9,15,15.9c4.2,0,7.3-0.9,10.5-3.2l1.5,2.6h9.6L211.1,50.2z M188.2,39.1
			c0-3.5,0.6-5.4,2.2-7l10.7,18.3c-1.5,1.3-3.8,2.1-5.7,2.1c-4.8,0-7.3-2.8-7.3-8.2V39.1z"/>
		<path class="st0" d="M220.6,1.2h17.2c3.5,0,7.6,0,11.2,3.6c3,3.1,3.5,7.1,3.5,11.7v27.1c0,8-1.2,15.6-14.7,15.6h-17.1V1.2z
			 M231.2,50.7c5,0,5.8,0,6.7-0.2c3.9-0.6,3.9-3.9,3.9-6.1V15.6c0-5.2-1.7-5.9-6.4-5.9h-4.2V50.7z"/>
		<rect x="50.6" y="71" class="st0" width="201.8" height="7.7"/>
	</g>
</g>
</svg>
