<svg id="Logo_2_1_" xmlns="http://www.w3.org/2000/svg" viewBox="0 0 216 84.1"><style>.st0{fill:#fff}.st1{fill:#98c21f}</style><path class="st0" d="M0 1.3h22.8c11.1 0 11.1 7.5 11.1 13.2v6.7c0 7.9-2.5 9.3-8 10.5 2.7.7 8.4 2.4 8.4 10.7V55c0 3.2.3 6.4 2.6 8.3H24.5c-1.3-2.4-1.7-5-1.7-6.8V43.2c0-4.2 0-7.2-6-7.2h-5.4v27.3H0v-62zm11.4 25.9h6c5.2 0 5.3-2.8 5.3-6v-5.9c0-5.1-2.7-5.1-5.3-5.1h-6v17zM63.2 24v-7.9c0-4.7-.8-7.3-5.8-7.3s-5.3 3.9-5.3 6.8v33.2c0 3.7.6 7 5.7 7 5.4 0 5.4-3.9 5.4-7.6V40h11.3v8.8c0 5 0 15.8-16.9 15.8-3.2 0-8.4-.6-12-3-4.9-3.3-4.9-8.1-4.9-11.5V16.4c0-5 .3-8.4 3.1-11.5C48.3.1 55.3 0 57.7 0c16.9 0 16.9 10 16.9 14.4V24H63.2zM81.4 1.3h18.5l7.4 43.4 7.3-43.4H133v62h-11.3l1.1-53.7-10 53.7h-10.7L91.8 9.6l.9 53.7H81.4v-62z"/><path class="st1" d="M171.7 53.7c2.5-4 4.1-9.9 4.1-15.5v-5.9h-9.1V38c0 2.1-.3 4.3-.7 6l-13.2-22.6c-1.9-3.3-2.8-5.7-2.8-7.8 0-1.6.4-5.3 4-5.3 1 0 3.9 0 3.9 5.5v6.5h9v-7c0-8.6-4.6-13.3-12.8-13.3-8.4 0-13.3 4.9-13.3 13.1 0 4.9 1.9 8.6 4.8 13.6-5.2 3.7-7.5 6.8-7.5 14.3v6c0 11.3 5.4 17 16.1 17 4.5 0 7.8-1 11.2-3.4l1.6 2.7h10.3l-5.6-9.6zm-24.5-11.9c0-3.7.6-5.8 2.4-7.5L161.1 54c-1.6 1.4-4 2.3-6.1 2.3-5.2 0-7.8-3-7.8-8.8v-5.7z"/><path class="st0" d="M181.9 1.3h18.4c3.7 0 8.2 0 11.9 3.9 3.3 3.3 3.7 7.6 3.7 12.5v29c0 8.6-1.3 16.7-15.7 16.7h-18.4V1.3zm11.4 53c5.4 0 6.2 0 7.2-.2 4.1-.6 4.1-4.2 4.1-6.5V16.7c0-5.5-1.8-6.3-6.8-6.3h-4.5v43.9zM0 76h216v8.2H0z"/></svg>